<?xml version="1.0" encoding="utf-8"?>
<!-- Generator: Adobe Illustrator 23.0.3, SVG Export Plug-In . SVG Version: 6.00 Build 0)  -->
<svg version="1.1" id="Capa_1" xmlns="http://www.w3.org/2000/svg" xmlns:xlink="http://www.w3.org/1999/xlink" x="0px" y="0px"
	 viewBox="0 0 137.7 35.8" style="enable-background:new 0 0 137.7 35.8;" xml:space="preserve">
<style type="text/css">
	.st0{fill:#0047BA;}
	.st1{fill:#222326;}
	.st2{fill:#B8B09C;}
	.st3{fill:#00BFD6;}
	.st4{fill:#F9BE00;}
	.st5{fill:#AF7F66;}
	.st6{fill:#F2F2F2;}
</style>
<g>
	<g>
		<path class="st0" d="M122.1,13.8c-0.1,0.1-0.2,14.7-2,20.2c-0.1,0.3,0,0.5,0.3,0.7l2.1,1.1c0.3,0.2,1.2-0.2,1.3-0.5
			c0.2-0.8,0.4-2.1,0.5-4.3c0-0.2,0.3-0.5,0.3-0.7s-0.2-0.5-0.2-0.7c0.1-1.6,0.1-3.2,0-5.4c0-0.1,0.2-0.4,0.2-0.5
			c0-0.2-0.2-0.3-0.2-0.5c-0.1-1.2-0.2-2.6-0.3-4.1c0-0.1,0.1-0.2,0.1-0.3c0-0.2-0.2-0.2-0.2-0.3c-0.1-1.1-0.2-2.2-0.4-3.4l0,0
			C123.7,14.8,123.6,12.6,122.1,13.8"/>
	</g>
	<g>
		<path class="st1" d="M121.6,20.8c0.1,0,1-0.1,0.9,0.1c-0.2,0.2-0.8,0.6-0.8,0.6L121.6,20.8z"/>
	</g>
	<g>
		<path class="st1" d="M121,26.1c0.1,0,1.4-0.1,1.2,0.2c-0.2,0.2-1.4,0.5-1.4,0.5L121,26.1z"/>
	</g>
	<g>
		<path class="st1" d="M120.2,32c0.1,0,1.7-0.1,1.5,0.1c-0.2,0.2-1.8,0.5-1.8,0.5L120.2,32z"/>
	</g>
	<g>
		<path class="st2" d="M123.7,12.6C123.7,12.6,123.8,12.6,123.7,12.6c0.2-0.1,2.6-0.5,5.5,2.2c2.5,2.3,2.3,4.1,2.3,4.1
			s-0.2,0.1-0.6,0.2s-0.7,0-0.7,0l0,0c0-0.2-0.1-0.9-0.2-1.1h-0.1c0,0.2,0,0.8-0.1,0.9c-0.2,0.3-1.1-0.2-1.3-0.3l0,0
			c0.1-0.1,0.3-0.6,0.1-1.2h-0.1c-0.1,0.3-0.4,0.9-0.4,0.9l-0.5-0.5l0,0l-0.1-1.4h-0.1l-0.2,1c0,0,0,0-0.1,0l-0.9-0.9l0,0
			c0-0.2,0.2-1.6,0.1-1.8h-0.1l-0.3,1.5c0,0,0,0-0.1,0l-2.6-2.4l0,0L123.7,12.6z"/>
	</g>
	<g>
		<path class="st2" d="M119.4,11.5L119.4,11.5c-0.2,0.1-3.5,1.9-3.9,2.6c-0.4,0.7-2.5,2.9-0.8,4.9c0,0,0,0,0.1,0l0.8-0.5l0,0
			c0-0.2-0.1-1.5,0.1-2.1h0.1l0.4,1.5c0,0,0,0,0.1,0c0.2-0.1,0.9-0.6,0.9-0.7c0,0-0.1-0.9-0.1-1.3c0,0,0.1-0.1,0.1,0l0.4,1
			c0,0,0,0,0.1,0l0.5-0.3l0,0l0.1-1.3c0,0,0.1-0.1,0.1,0l0.5,1c0,0,0,0,0.1,0c0.2-0.1,0.9-0.4,0.8-0.5s-0.1-0.3-0.2-0.4
			c0,0,0-0.1,0.1,0l0.2,0.3c0,0,0,0,0.1,0l2-1.3l0,0C121.7,13.9,121.4,11.4,119.4,11.5"/>
	</g>
	<g>
		<path class="st3" d="M118.7,10.4L118.7,10.4c-0.1-0.1-2.9-1.1-4.5-0.3c-1.3,0.7-4.4,2.4-4.5,2.6l0,0c-0.1,0.1-1.4,1.1-0.3,1l0,0
			c0.1,0,1.1,0.1,1.1,0s0.7-0.7,1.2-1.2h0.1l-0.8,1v0.1c0.2,0,0.7,0.1,0.8,0c0.1-0.1,1-0.8,1.4-1h0.1l-0.6,0.9v0.1h0.8l0,0l1-0.9
			h0.1l-0.5,0.7v0.1h0.4l0,0l1.2-1.2h0.1l-0.6,1.2v0.1h2.2l0,0l0.8-1.2h0.1l-0.4,1.1l0,0h3.1l0,0c0.1-0.1,1.9-1.2,1.8-1.1
			C122.7,12.5,119.9,10.7,118.7,10.4"/>
	</g>
	<g>
		<path class="st2" d="M122.4,11.5c0.1-0.1,1.6-1.8,4.4-4.1c1.9-1.6,4.1-2.9,8.4-1l2.5,1.2v0.1L136.6,8l0,0L133,6.9c0,0-0.1,0,0,0.1
			l2.4,1.4c0,0,0,0,0,0.1c-0.3,0.1-1.8,0.7-1.9,0.6c-0.1,0-1.8-0.8-2.4-1.1c0,0-0.1,0,0,0.1l1.5,1.2c0,0,0,0,0,0.1L131,9.9l0,0
			l-1.5-1c0,0-0.1,0,0,0l0.9,1.1c0,0,0,0,0,0.1l-0.8,0.3l0,0l-0.8-0.6c0,0-0.1,0,0,0l0.5,0.8l0,0l-1.8,0.7l0,0
			c-0.1-0.1-1.3-0.9-1.2-0.8c0,0.1,0.6,0.9,0.8,1.1l0,0c-0.2,0.1-1.2,0.6-1.3,0.6c0,0-0.6-0.4-0.8-0.7h-0.1l0.4,0.8l0,0l-2,1l0,0
			C122.7,13.3,121,12.8,122.4,11.5"/>
	</g>
	<g>
		<path class="st3" d="M122,11.8c-0.1-0.1,0.7-4.4,1.5-5.9s3-4.3,3.2-4.2s2.7-1,2.6-0.5l-0.4,0.9l0,0l-1.1,0.3l0,0h0.9l0,0l-0.6,1
			l0,0l-1.3,0.3l0,0l1.1,0.1l0,0l-0.2,0.4l0,0l-1.3,0.4l0,0h1l0,0L127.2,5l0,0l-1.9,0.7l0,0l1.5-0.2l0,0L126,7.2l0,0l-1,0.2l0,0h0.8
			l0,0L125.5,8l0,0L124,8.6l0,0l1-0.2l0,0c-0.2,0.3-2.3,3.2-2.6,3.3C122.2,11.8,122.2,12.1,122,11.8"/>
	</g>
	<g>
		<path class="st0" d="M121.9,11.9c0-0.2,0.5-3.7-1.3-7.4l0,0c0-0.1-2-5.2-5.7-4.4c0,0,0,0,0,0.1l0.6,1.6l0,0l1.6,0.6v0.1l-1.3,0.1
			c0,0,0,0,0,0.1l0.4,0.9l0,0l1.2,0.3V4l-0.9,0.2c0,0,0,0,0,0.1l0.4,0.8l0,0c0.2,0,2.1,0.1,2,0.2s-1.3,0.2-1.6,0.3c0,0,0,0,0,0.1
			l0.4,0.6l0,0l1.8,0.4v0.1h-1.3c0,0,0,0,0,0.1l0.7,1l0,0l1.1,0.3v0.1l-0.7,0.1c0,0,0,0,0,0.1l1.3,2.2
			C120.5,10.3,121.8,12.5,121.9,11.9"/>
	</g>
	<g>
		<path class="st0" d="M122.6,11.8C122.7,11.7,122.6,11.7,122.6,11.8L117,7c0,0-3.5-3-6.2-0.2l0,0c0,0.1-0.1,0.6,0.8,0.8l0,0l1-0.5
			c0,0,0.1,0,0,0L112.1,8l0,0l1,0.5l0,0l1-0.7h0.1l-0.4,0.8l0,0l1.3,0.6l0,0l1.1-0.7h0.1l-0.6,0.9c0,0,0,0,0,0.1l6.7,2.6l0,0
			L122.6,11.8z"/>
	</g>
	<g>
		<path class="st4" d="M119.6,13.6c0,0.9,0.6,1.6,1.5,1.6c0.8,0,1.6-0.6,1.6-1.5s-0.6-1.6-1.5-1.6C120.4,12.1,119.7,12.8,119.6,13.6
			"/>
	</g>
	<g>
		<path class="st5" d="M121.2,12.3c0,0.9,0.7,1.7,1.6,1.7s1.7-0.7,1.7-1.6c0-0.9-0.7-1.7-1.6-1.7C122,10.7,121.2,11.4,121.2,12.3"/>
	</g>
	<g>
		<path class="st6" d="M0,12.9c0-0.2,0.2-0.4,0.4-0.4H3c0.2,0,0.4,0.2,0.4,0.4v11.6h5.1c0.2,0,0.4,0.2,0.4,0.4v2.4
			c0,0.2-0.2,0.4-0.4,0.4H0.4c-0.2,0-0.4-0.2-0.4-0.4V12.9z"/>
	</g>
	<g>
		<path class="st6" d="M14.1,27.1l6.8-14.6c0.1-0.1,0.2-0.2,0.4-0.2h0.2c0.2,0,0.3,0.1,0.4,0.2l6.8,14.6c0.1,0.3,0,0.6-0.4,0.6h-2.4
			c-0.4,0-0.6-0.1-0.8-0.5l-0.8-1.7h-5.9l-0.8,1.7c-0.1,0.3-0.3,0.5-0.8,0.5h-2.4C14.2,27.7,14,27.4,14.1,27.1 M23,22.5l-1.6-3.6
			l0,0l-1.6,3.6H23z"/>
	</g>
	<g>
		<path class="st6" d="M43.8,12.9c0-0.2,0.2-0.4,0.4-0.4h2.6c0.2,0,0.4,0.2,0.4,0.4v14.3c0,0.2-0.2,0.4-0.4,0.4h-2.6
			c-0.2,0-0.4-0.2-0.4-0.4V12.9z"/>
	</g>
	<g>
		<path class="st6" d="M54.4,25.6l1-1.8c0.2-0.3,0.6-0.2,0.7-0.1c0.1,0,1.6,1.2,3.1,1.2c0.9,0,1.5-0.5,1.5-1.3
			c0-0.9-0.8-1.6-2.2-2.2c-1.9-0.7-4.2-2.2-4.2-4.8c0-2.1,1.7-4.3,5-4.3c2.2,0,4,1.1,4.6,1.6c0.3,0.2,0.2,0.5,0.1,0.7l-1,1.7
			c-0.2,0.2-0.5,0.4-0.7,0.3s-1.8-1.3-3.1-1.3c-0.8,0-1.4,0.5-1.4,1.1c0,0.8,0.6,1.4,2.4,2.1c1.7,0.7,4.4,2,4.4,4.9
			c0,2.2-1.9,4.5-5.1,4.5c-2.8,0-4.4-1.2-4.9-1.7C54.3,26,54.3,25.9,54.4,25.6"/>
	</g>
	<g>
		<path class="st6" d="M71.5,12.9c0-0.2,0.2-0.4,0.4-0.4h2.6c0.2,0,0.4,0.2,0.4,0.4v11.6H80c0.2,0,0.4,0.2,0.4,0.4v2.4
			c0,0.2-0.2,0.4-0.4,0.4h-8.1c-0.2,0-0.4-0.2-0.4-0.4V12.9L71.5,12.9z"/>
	</g>
	<g>
		<path class="st6" d="M85.6,27.1l6.8-14.6c0.1-0.1,0.2-0.2,0.4-0.2H93c0.2,0,0.3,0.1,0.4,0.2l6.8,14.6c0.1,0.3,0,0.6-0.4,0.6h-2.4
			c-0.4,0-0.6-0.1-0.8-0.5l-0.8-1.7h-5.9l-0.8,1.7c-0.1,0.3-0.3,0.5-0.8,0.5H86C85.7,27.7,85.5,27.4,85.6,27.1 M94.5,22.5l-1.6-3.6
			l0,0l-1.6,3.6H94.5z"/>
	</g>
</g>
</svg>
